<svg width="20" height="21" viewBox="0 0 20 21" fill="none" xmlns="http://www.w3.org/2000/svg">
<path d="M4.58317 15.0837H3.33317V5.91699H9.83317L9.1665 6.58366C8.99984 6.75033 8.9165 6.91699 8.9165 7.16699C8.9165 7.66699 9.24984 8.00033 9.74984 8.00033C9.99984 8.00033 10.1665 7.91699 10.3332 7.75033L12.4165 5.66699C12.7498 5.33366 12.7498 4.83366 12.4165 4.50033L10.3332 2.41699C9.99984 2.08366 9.49984 2.08366 9.1665 2.41699C8.83317 2.75033 8.83317 3.25033 9.1665 3.58366L9.83317 4.25033H2.49984C1.99984 4.25033 1.6665 4.58366 1.6665 5.08366V15.917C1.6665 16.417 1.99984 16.7503 2.49984 16.7503H4.58317C5.08317 16.7503 5.4165 16.417 5.4165 15.917C5.4165 15.417 5.08317 15.0837 4.58317 15.0837ZM17.4998 4.25033H15.4165C14.9165 4.25033 14.5832 4.58366 14.5832 5.08366C14.5832 5.58366 14.9165 5.91699 15.4165 5.91699H16.6665V15.0837H9.6665L10.3332 14.417C10.6665 14.0837 10.6665 13.5837 10.3332 13.2503C9.99984 12.917 9.49984 12.917 9.1665 13.2503L7.08317 15.3337C6.74984 15.667 6.74984 16.167 7.08317 16.5003L9.1665 18.5837C9.33317 18.7503 9.49984 18.8337 9.74984 18.8337C9.99984 18.8337 10.1665 18.7503 10.3332 18.5837C10.6665 18.2503 10.6665 17.7503 10.3332 17.417L9.6665 16.7503H17.4998C17.9998 16.7503 18.3332 16.417 18.3332 15.917V5.08366C18.3332 4.58366 17.9998 4.25033 17.4998 4.25033Z" fill="#A162F7"/>
</svg>
